<?xml version="1.0" encoding="UTF-8"?>
<svg
	fill="none"
	xmlns="http://www.w3.org/2000/svg"
	viewBox="0 0 256 256">
	<circle
		cx="128"
		cy="128"
		stroke="#2ba9e1"
		stroke-width="2"
		r="120.5" />
	<circle
		cx="128"
		cy="128"
		stroke="#2ba9e1"
		stroke-width="2"
		r="116.2" />
	<circle
		cx="128"
		cy="128"
		stroke="#2ba9e1"
		stroke-width="2"
		r="111.9" />
	<circle
		cx="128"
		cy="128"
		stroke="#2ba9e1"
		stroke-width="2"
		r="107.6" />
	<circle
		cx="128"
		cy="128"
		stroke="#2ba9e1"
		stroke-width="2"
		r="103.3" />
	<!-- Airplane from https://pixabay.com/vectors/airplane-fly-jet-silhouette-2029257/ -->
	<path
		transform="translate(110,0) rotate(45) scale(0.062,0.072)"
		fill="#d6033a"
		d="m818.02 1007.7c-7.302 4.334-39.564-4.471-96.744-9.054-4.314-0.346-2.765-3.258-3.613-5.281-0.585-1.396 1.081-4.035-1.635-4.113-9.146-0.263-2.801 12.17-13.375 36.558-0.144-1.003-4.212-28.249-3.993-35.43 0.181-5.934-4.818-2.495-32.829-6.734-7.423-1.124-13.527 2.016-20.304 2.297-4.458 0.184-8.954 3.764-10.132 6.846-1.136 2.974 0.172 1.533-23.944 5.125-11.161 1.662-10.939 0.604-12.376 10.147-1.316 8.741-1.904 17.61-4.361 26.133-1.375-0.163-1.442-1.124-1.378-1.923 0.743-9.304-2.593-18.052-3.589-27.109-0.33-3-1.915-4.348-4.325-3.571-7.13 2.301-14.952-1.026-21.818 2.891-0.266 0.152-0.678 0.087-1.018 0.065-10.791-0.731-21.504 1.351-32.008 2.69-13.751 1.753-27.713 0.793-41.322 3.921-21.467 4.933-15.029-8.995-24.081 36.294-0.237 1.186-0.222 2.396-2.143 3.715 0.867-12.119-2.472-17.424-3.147-31.771-0.104-2.213-1.339-2.579-3.043-2.404-6.872 0.709-13.729-0.904-20.738 1.624-5.071 1.829-11.149 0.09-16.733 1.217-1.003 0.202-2.773-0.358-3.262-1.143-4.739-7.612-14.475-0.732-17.573-5.465-2.885-4.409-8.751-6.191-13.771-3.766-8.065 3.898-170.6 25.959-281.02 43.947-11.383 1.854-18.717-0.704-27.072 9.759-7.798 9.765-34.158 38.51-35.573 39.764 0.033-4.023 1.106-7.65 3.2-11.036 33.41-54.04 34.592-50.664 30.984-66.121-2.714-11.637 5.337-23.241 14.364-29.732 10.779-7.751 444.73-151.83 494.17-172.16 30.475-12.529 37.143-8.473 33.446-21.883-10.732-38.931-6.06-84.161-1.705-93.554 24.33-52.473 68.911-44.463 88.417-26.292 8.103 7.552 19.097 23.366 20.621 34.548 1.212 8.894-7.25 35.906-4.138 48.69 2.236 9.186-0.56 7.423 7.987 5.104 10.512-2.852 24.273-11.868 33.138-18.2 56.112-40.075 54.583-33.173 54.624-44.532 0.551-153.36-6.197-357.3 2.486-445.84 9.038-92.162 61.289-245.75 95.809-221.28 31.859 22.587 68.829 174.69 71.207 183.27 12.881 46.471 12.077 64.291 11.1 405.71-0.103 35.869-12.479 65.63 10.52 87.246 6.41 6.024 42.394 30.688 66.582 42.63 5.479 2.705 11.65 4.392 16.154 9.171 11.138 11.819 7.29-17.498 7.111-20.559-1.069-18.263-3.059-37.406 7.346-53.125 28.985-43.787 84.898-35.598 95.011 0.242 12.659 44.861 7.779 70.749 5.031 89.602-2.941 20.176-6.336 23.292 0.371 25.525 0 0 10.491 4.703 333.33 111.5 187.64 62.072 199.06 44.094 202.73 96.927 1.21 17.442 17.481 35.025 26.859 49.077 3.183 4.77 4.849 10.293 8.385 14.842 1.375 1.769 0.923 4.098-0.293 7.668-2.897-6.753-36.292-40.685-42.044-46.212 0 0-297.81-40.096-291.67-39.729-13.9-0.832-20.148-7.733-19.819-0.622 0.165 3.566-1.299 4.846-4.99 3.921-2.939-0.736-6.112 0.436-9.129-0.698-1.434-0.539-2.248 0.688-2.745 1.766-1.513 3.28-3.499 3.769-7.274 3.222-10.959-1.588-22.096-1.926-33.075-3.41-10.387-1.404-2.719 5.501-9.266 37.611-2.872-5.133-3.048-10.238-4.405-14.924-6.801-23.47-4.417-24.421-7.952-24.716-7.468-0.625-91.568-8.133-104.55-10.055-10.828-1.603-6.541 3.323-12.279 33.549-0.291-1.427-6.208-24.02-6.641-30.354-0.548-8.023-23.808-7.068-30.336-7.451-11.311-0.663-3.676-5.533-5.907-11.362-4.055 2.503-8.645 1.704-12.315 0.738-14.948-3.933-29.433 0.924-44.114 1.378-3.301 0.102-5.05 2.563-4.936 5.988 0.346 10.293-2.445 20.28-2.953 30.488-0.07 1.402-0.276 3.21-1.808 3.142-2.64-0.117-6.684-37.346-12.251-36.539-8.488 1.231 3.244 9.531-11.266 10.453-5.488 0.348-80.971 10.628-86.24 12.089-1.326 0.368-3.75 1.096-3.932-1.704-0.246-3.787-4.756-2.408-5.021-0.226-0.195 1.601 0.526 3.579 1.841 3.75 3.236 0.42 9.611 300.65-19.68 415.51-1.492 5.852-9.187 33.426-9.556 43.751-0.528 14.66-8.794 5.649 44.632 30.815 48.773 22.975 230.24 102.84 231.25 103.28 6.372 2.76 3.658 17.141 3.741 26.237 0.036 3.963 11.595 2.499-231.77-24.722-95.784-10.714-94.218-7.336-91.969-13.832 3.501-10.115 4.66-20.884 8.349-30.973 0.472-1.29 1.329-3.205-1.17-3.591-1.953-0.302-3.199-0.077-3.898 2.597-10.281 39.293-13.614 46.034-13.153 49.058 1.212 7.944-11.477 10.239-13.884 1.059-1.286-4.906-3.865-9.399-6.652-13.671-0.752-1.152-319.05 39.753-323.67 41.574-1.538 0.606-3.702 0.59-3.592-2.491 0.666-18.796-2.454-25.205 7.154-27.774 0.299-0.08 270.19-125.53 270.68-126.53 2.419-4.939-7.458-24.679-9.047-30.371-29.974-107.35-20.655-441.68-20.61-442.7z" />
	<!-- compass -->
	<g
		transform="translate(96 180) rotate(-22.5 50 17)"
		stroke="none"
		opacity="1">
		<path
			fill="#d6033a"
			d="M51,0 L 0,17 51,34 102,17 Z" />
		<path
			fill="white"
			d="M51,0.2 L 101.4,17 51,33.8 Z" />
		<path
			fill="white"
			d="M51,1 L 1.8,17 51,33 Z" />
		<path
			fill="#d6033a"
			d="M51,1 L 98.8,17 51,33 Z" />
		<path
			fill="#d6033a"
			d="M51,9 L 33,17 51,25 Z" />
		<path
			fill="white"
			d="M51,9 L 69,17 51,25 Z" />
	</g>
</svg>