<?xml version="1.0" encoding="utf-8" ?>
<svg height="48" width="48" xmlns="http://www.w3.org/2000/svg">
    <ellipse style="fill: white; fill-opacity: 0.01;" cx="24" cy="24" rx="24" ry="24" />
    <path d="M 20.75 34 L 20.75 32.95 L 22.75 31.45 L 22.75 25.175 L 14 27.75 L 14 26.3 L 22.75 21.15 L 22.75 15.25 C 22.75 14.9 22.871 14.604 23.113 14.363 C 23.354 14.121 23.65 14 24 14 C 24.35 14 24.646 14.121 24.887 14.363 C 25.129 14.604 25.25 14.9 25.25 15.25 L 25.25 21.15 L 34 26.3 L 34 27.75 L 25.25 25.175 L 25.25 31.45 L 27.25 32.95 L 27.25 34 L 24 33.075 L 20.75 34 Z" />
</svg>