<?xml version="1.0" encoding="utf-8" ?>
<svg height="48" width="48" xmlns="http://www.w3.org/2000/svg">
	<ellipse style="fill: white; fill-opacity: 0.01;" cx="24" cy="24" rx="24" ry="24" />
	<svg
		fill="none"
		stroke-width="0.5"
		x="14"
		y="14"
		height="20"
		width="20">
		<path
			stroke="black"
			d="M 3.0,8.95854811567262L 0.401923788646684,7.45854811567262 3.401923788646684,2.9585481156726203 6.0,4.45854811567262  14.0,4.45854811567262L 16.598076211353316,2.9585481156726203 19.598076211353316,7.45854811567262 17.0,8.95854811567262  13.0,15.886751345948129L 13.0,18.886751345948127 7.0,18.886751345948127 7.0,15.886751345948129Z"/>
		<svg
			fill="none">
			<path d="M 3.0,8.95854811567262L 0.401923788646684,7.45854811567262 3.401923788646684,2.9585481156726203 6.0,4.45854811567262Z"/>
			<path d="M 14.0,4.45854811567262L 16.598076211353316,2.9585481156726203 19.598076211353316,7.45854811567262 17.0,8.95854811567262Z"/>
			<path d="M 13.0,15.886751345948129L 13.0,18.886751345948127 7.0,18.886751345948127 7.0,15.886751345948129Z"/>
		</svg>
		<path
			fill="black"
			d="M 3.0,8.95854811567262L 6.0,4.45854811567262 14.0,4.45854811567262 17.0,8.95854811567262 13.0,15.886751345948129 7.0,15.886751345948129Z"/>
	</svg>
</svg>
